<svg width="368" height="376" viewBox="0 0 368 376" fill="none" xmlns="http://www.w3.org/2000/svg">
<g id="js">
<path id="Vector" d="M0 0V376H368V0H0ZM194.654 320.391C189.223 331.668 178.854 339.077 166.839 342.653C148.378 346.985 130.719 344.515 117.583 336.46C108.793 330.949 101.927 322.467 97.2668 312.694L125.294 295.157C125.538 295.262 126.274 296.622 127.257 298.379C130.831 304.497 133.914 308.828 139.972 311.869C145.925 313.945 158.994 315.271 164.04 304.569C167.122 299.125 166.142 281.624 166.142 262.262C166.139 231.836 166.277 201.536 166.277 171.456H200.748C200.748 204.544 200.925 235.881 200.748 268.169C200.822 287.962 202.503 305.607 194.654 320.391ZM337.656 310.441C325.674 352.318 258.869 353.678 232.173 326.01C226.532 319.498 222.996 316.096 219.631 308.579C233.818 300.24 233.818 300.241 247.623 292.08C255.121 303.856 262.054 310.332 274.528 312.982C291.45 315.094 308.475 309.153 304.657 290.789C300.733 275.791 270.006 272.143 249.095 256.104C227.866 241.536 222.89 206.138 240.336 185.912C246.151 178.432 256.066 172.849 266.47 170.166L277.328 168.731C298.174 168.301 311.204 173.926 320.769 184.839C323.431 187.594 325.603 190.566 329.666 197.006C318.561 204.237 318.597 204.168 302.69 214.69C299.293 207.212 293.655 202.52 287.697 200.48C278.446 197.617 266.782 200.73 264.362 210.716C263.523 213.794 263.697 216.657 265.031 221.741C268.778 230.473 281.355 234.269 292.637 239.566C325.112 253.024 336.078 267.453 338.775 284.629C341.372 299.416 338.148 309.009 337.656 310.441Z" fill="#14213D"/>
</g>
</svg>
