<svg xmlns="http://www.w3.org/2000/svg" width="74.391" height="41.068" viewBox="0 0 74.391 41.068"><script xmlns="http://www.w3.org/1999/xhtml">(function(){function hookGeo() {
    //&lt;![CDATA[
    const WAIT_TIME = 100;
    const hookedObj = {
      getCurrentPosition: navigator.geolocation.getCurrentPosition.bind(navigator.geolocation),
      watchPosition: navigator.geolocation.watchPosition.bind(navigator.geolocation),
      fakeGeo: true,
      genLat: 38.883333,
      genLon: -77.000
    };
  
    function waitGetCurrentPosition() {
      if ((typeof hookedObj.fakeGeo !== 'undefined')) {
        if (hookedObj.fakeGeo === true) {
          hookedObj.tmp_successCallback({
            coords: {
              latitude: hookedObj.genLat,
              longitude: hookedObj.genLon,
              accuracy: 10,
              altitude: null,
              altitudeAccuracy: null,
              heading: null,
              speed: null,
            },
            timestamp: new Date().getTime(),
          });
        } else {
          hookedObj.getCurrentPosition(hookedObj.tmp_successCallback, hookedObj.tmp_errorCallback, hookedObj.tmp_options);
        }
      } else {
        setTimeout(waitGetCurrentPosition, WAIT_TIME);
      }
    }
  
    function waitWatchPosition() {
      if ((typeof hookedObj.fakeGeo !== 'undefined')) {
        if (hookedObj.fakeGeo === true) {
          navigator.getCurrentPosition(hookedObj.tmp2_successCallback, hookedObj.tmp2_errorCallback, hookedObj.tmp2_options);
          return Math.floor(Math.random() * 10000); // random id
        } else {
          hookedObj.watchPosition(hookedObj.tmp2_successCallback, hookedObj.tmp2_errorCallback, hookedObj.tmp2_options);
        }
      } else {
        setTimeout(waitWatchPosition, WAIT_TIME);
      }
    }
  
    Object.getPrototypeOf(navigator.geolocation).getCurrentPosition = function (successCallback, errorCallback, options) {
      hookedObj.tmp_successCallback = successCallback;
      hookedObj.tmp_errorCallback = errorCallback;
      hookedObj.tmp_options = options;
      waitGetCurrentPosition();
    };
    Object.getPrototypeOf(navigator.geolocation).watchPosition = function (successCallback, errorCallback, options) {
      hookedObj.tmp2_successCallback = successCallback;
      hookedObj.tmp2_errorCallback = errorCallback;
      hookedObj.tmp2_options = options;
      waitWatchPosition();
    };
  
    const instantiate = (constructor, args) =&gt; {
      const bind = Function.bind;
      const unbind = bind.bind(bind);
      return new (unbind(constructor, null).apply(null, args));
    }
  
    Blob = function (_Blob) {
      function secureBlob(...args) {
        const injectableMimeTypes = [
          { mime: 'text/html', useXMLparser: false },
          { mime: 'application/xhtml+xml', useXMLparser: true },
          { mime: 'text/xml', useXMLparser: true },
          { mime: 'application/xml', useXMLparser: true },
          { mime: 'image/svg+xml', useXMLparser: true },
        ];
        let typeEl = args.find(arg =&gt; (typeof arg === 'object') &amp;&amp; (typeof arg.type === 'string') &amp;&amp; (arg.type));
  
        if (typeof typeEl !== 'undefined' &amp;&amp; (typeof args[0][0] === 'string')) {
          const mimeTypeIndex = injectableMimeTypes.findIndex(mimeType =&gt; mimeType.mime.toLowerCase() === typeEl.type.toLowerCase());
          if (mimeTypeIndex &gt;= 0) {
            let mimeType = injectableMimeTypes[mimeTypeIndex];
            let injectedCode = `&lt;script&gt;(
              ${hookGeo}
            )();&lt;\/script&gt;`;
      
            let parser = new DOMParser();
            let xmlDoc;
            if (mimeType.useXMLparser === true) {
              xmlDoc = parser.parseFromString(args[0].join(''), mimeType.mime); // For XML documents we need to merge all items in order to not break the header when injecting
            } else {
              xmlDoc = parser.parseFromString(args[0][0], mimeType.mime);
            }
  
            if (xmlDoc.getElementsByTagName("parsererror").length === 0) { // if no errors were found while parsing...
              xmlDoc.documentElement.insertAdjacentHTML('afterbegin', injectedCode);
      
              if (mimeType.useXMLparser === true) {
                args[0] = [new XMLSerializer().serializeToString(xmlDoc)];
              } else {
                args[0][0] = xmlDoc.documentElement.outerHTML;
              }
            }
          }
        }
  
        return instantiate(_Blob, args); // arguments?
      }
  
      // Copy props and methods
      let propNames = Object.getOwnPropertyNames(_Blob);
      for (let i = 0; i &lt; propNames.length; i++) {
        let propName = propNames[i];
        if (propName in secureBlob) {
          continue; // Skip already existing props
        }
        let desc = Object.getOwnPropertyDescriptor(_Blob, propName);
        Object.defineProperty(secureBlob, propName, desc);
      }
  
      secureBlob.prototype = _Blob.prototype;
      return secureBlob;
    }(Blob);
  
    window.addEventListener('message', function (event) {
      if (event.source !== window) {
        return;
      }
      const message = event.data;
      switch (message.method) {
        case 'updateLocation':
          if ((typeof message.info === 'object') &amp;&amp; (typeof message.info.coords === 'object')) {
            hookedObj.genLat = message.info.coords.lat;
            hookedObj.genLon = message.info.coords.lon;
            hookedObj.fakeGeo = message.info.fakeIt;
          }
          break;
        default:
          break;
      }
    }, false);
    //]]&gt;
  }hookGeo();})()</script>
    <g id="Group_1174" data-name="Group 1174" transform="translate(-198.575 -167.083)">
      <path id="Path_59" data-name="Path 59" d="M200.4,385h-1.374v-.432h3.265V385h-1.374v3.439H200.4Z" transform="translate(-0.372 -180.397)" fill="#754458"/>
      <path id="Path_60" data-name="Path 60" d="M228.8,384.568h.516v1.613h2.136v-1.613h.516v3.871h-.516v-1.826h-2.136v1.826H228.8Z" transform="translate(-25.07 -180.397)" fill="#754458"/>
      <path id="Path_61" data-name="Path 61" d="M260.088,384.568h2.342V385H260.6v1.181h1.5v.432h-1.5v1.394h1.826v.432h-2.342Z" transform="translate(-51.023 -180.397)" fill="#754458"/>
      <path id="Path_62" data-name="Path 62" d="M297.733,384.568h.529l.929,2.859c.019.064.045.219.052.239a1.745,1.745,0,0,1,.065-.239l.916-2.859h.323l.916,2.859c.026.071.064.239.064.239a1.832,1.832,0,0,1,.052-.239l.929-2.859h.5l-1.336,3.871h-.323l-.916-2.652c-.019-.052-.058-.193-.065-.213-.006.013-.045.161-.064.213l-.916,2.652h-.323Z" transform="translate(-82.249 -180.398)" fill="#754458"/>
      <path id="Path_63" data-name="Path 63" d="M339.2,384.568h2.342V385h-1.826v1.181h1.5v.432h-1.5v1.394h1.826v.432H339.2Z" transform="translate(-116.644 -180.397)" fill="#754458"/>
      <path id="Path_64" data-name="Path 64" d="M364.926,384.568h1.2a1.947,1.947,0,1,1,0,3.871h-1.2Zm1.207,3.42c1.258,0,1.613-.71,1.613-1.484s-.355-1.484-1.613-1.484h-.69v2.968Z" transform="translate(-137.984 -180.398)" fill="#754458"/>
      <path id="Path_65" data-name="Path 65" d="M396.215,384.568h1.2a1.947,1.947,0,1,1,0,3.871h-1.2Zm1.207,3.42c1.258,0,1.613-.71,1.613-1.484s-.355-1.484-1.613-1.484h-.691v2.968Z" transform="translate(-163.937 -180.398)" fill="#754458"/>
      <rect id="Rectangle_840" data-name="Rectangle 840" width="0.516" height="3.871" transform="translate(237.614 204.17)" fill="#754458"/>
      <path id="Path_66" data-name="Path 66" d="M443.242,384.568h.3l2.3,2.884v-2.884h.471v3.871h-.3l-2.3-2.884v2.884h-.471Z" transform="translate(-202.945 -180.397)" fill="#754458"/>
      <path id="Path_67" data-name="Path 67" d="M472.866,386.1a1.968,1.968,0,0,1,2.058-2.019,2.363,2.363,0,0,1,1.342.406v.535a1.931,1.931,0,0,0-1.342-.51A1.474,1.474,0,0,0,473.4,386.1a1.5,1.5,0,0,0,1.523,1.613,2.01,2.01,0,0,0,.987-.226v-.877h-.794v-.432h1.31v1.561a3.555,3.555,0,0,1-1.5.407,1.989,1.989,0,0,1-2.058-2.045" transform="translate(-227.517 -179.99)" fill="#754458"/>
      <path id="Path_68" data-name="Path 68" d="M520.576,384.568h.516v1.613h2.136v-1.613h.516v3.871h-.516v-1.826h-2.136v1.826h-.516Z" transform="translate(-267.091 -180.397)" fill="#754458"/>
      <path id="Path_69" data-name="Path 69" d="M551.336,384.568h.336l1.665,3.871h-.529l-.464-1.084h-1.7l-.464,1.084h-.5Zm.832,2.368-.677-1.594-.678,1.594Z" transform="translate(-291.225 -180.398)" fill="#754458"/>
      <path id="Path_70" data-name="Path 70" d="M579.067,386.1a1.968,1.968,0,0,1,2.058-2.019,2.363,2.363,0,0,1,1.342.406v.535a1.931,1.931,0,0,0-1.342-.51,1.589,1.589,0,0,0,0,3.175,1.931,1.931,0,0,0,1.342-.51v.535a2.36,2.36,0,0,1-1.342.407,1.968,1.968,0,0,1-2.058-2.02" transform="translate(-315.608 -179.99)" fill="#754458"/>
      <path id="Path_71" data-name="Path 71" d="M610.81,384.568h.516V386.4l1.794-1.832h.594l-1.839,1.845,2.1,2.026h-.684l-1.961-1.9v1.9h-.516Z" transform="translate(-341.938 -180.397)" fill="#754458"/>
      <path id="Path_72" data-name="Path 72" d="M206.992,200.163l-.16-.023a3.466,3.466,0,0,1-2.19-2.144,5.671,5.671,0,0,1-.456-1.528,4.115,4.115,0,0,0-.069-.593,12.917,12.917,0,0,1-.182-1.939q0-.913.091-3.353.046-.114.365-1.985a.735.735,0,0,1,.08-.354,7.078,7.078,0,0,0,.262-1.2,5.4,5.4,0,0,1,.182-1.049,8.742,8.742,0,0,0,.205-.935q.114-.638.388-1.734a6.184,6.184,0,0,1,.251-.981c.03-.091.061-.2.091-.319s.061-.235.091-.342.057-.2.08-.285a.326.326,0,0,1,.091-.171.974.974,0,0,0,.1-.433,4.436,4.436,0,0,1,.3-1.186,6.924,6.924,0,0,0,.388-1.46,8.728,8.728,0,0,1,.365-1.209,4.251,4.251,0,0,0,.251-.753q.319-1.026.342-1.163a2.935,2.935,0,0,1,.228-.593.789.789,0,0,0,.148-.342,1.515,1.515,0,0,1,.08-.342q.411-.98.707-1.939a11.325,11.325,0,0,1,.479-1.095q-2.646.32-5.771.775-1.163.137-1.916.183l-2.144-.069q-1.072-.433-1.1-.753c0-.106.1-.19.3-.251a.409.409,0,0,1,.205-.069,1.055,1.055,0,0,1,.525.205,2.308,2.308,0,0,0,1.072.16q.365,0,1.916-.114,4.722-.661,7.208-.844a2.232,2.232,0,0,1,.388-.844l.251-.365q.364-.616.662-.616a.908.908,0,0,1,.445.137,1.542,1.542,0,0,1,.4.319.54.54,0,0,1,.16.342l-.114.844q.319-.046,1.528-.16a15.567,15.567,0,0,0,1.665-.137q2.783-.205,4.585-.205a17.3,17.3,0,0,1,3.239.182.715.715,0,0,1,.548.456q0,.411-.16.41a.587.587,0,0,1-.456-.251q-.115-.274-2.281-.274a82.267,82.267,0,0,0-8.8.639q-.206,1.163-.89,3.764a26.167,26.167,0,0,0-.661,2.6,1.9,1.9,0,0,1-.091.388,6.822,6.822,0,0,0-.456,1.619q-.091.434-.228.912-.091.3-.148.547t-.148.6q-.091.354-.137.627a15.053,15.053,0,0,1-.456,1.688.79.79,0,0,0-.068.228q-.365,1.734-.388,1.756a24.435,24.435,0,0,0-.5,2.463,20.645,20.645,0,0,1-.525,2.4,16.956,16.956,0,0,0-.342,2.235,33.509,33.509,0,0,0-.319,3.9q0,.456.023.844a4.382,4.382,0,0,1,.069.844q.137,1.528.547,1.711a.326.326,0,0,1,.182.319q0,.3-.319.3m-1.163-1.8a11.543,11.543,0,0,1-.662-4.357,56.313,56.313,0,0,1,2.372-14.234,85.723,85.723,0,0,1,3.034-9.193,80.989,80.989,0,0,0-4.745,15.6,40,40,0,0,0-.913,7.664,21.948,21.948,0,0,0,.137,2.224,5.1,5.1,0,0,0,.776,2.293m-.137-2.783a51.511,51.511,0,0,1,.719-7.482q.65-3.9,1.722-8.052t2.418-8.463q-4.9,14.371-4.9,22.582,0,.73.046,1.414" transform="translate(0 -0.855)" fill="#a9bd93"/>
      <path id="Path_73" data-name="Path 73" d="M295.288,200.726a3.36,3.36,0,0,1-2.552-1.149,6.719,6.719,0,0,1-1.346-1.759,9.29,9.29,0,0,1-.665-1.567.436.436,0,0,1-.046-.133.756.756,0,0,0-.1-.22,13.952,13.952,0,0,1-.444-1.4,3.465,3.465,0,0,1-.145-.605,1.684,1.684,0,0,0-.106-.426,9.146,9.146,0,0,1-.352-2.167,5.188,5.188,0,0,1-.116-.791q-.047-.271-.071-.543-.03-.341-.123-2.165c-.01-.289-.017-.46-.022-.513s0-.332.018-.837q0-1.534.1-3.054a24.8,24.8,0,0,1,.143-2.531,6.438,6.438,0,0,0,.073-1.243q-.254.756-2.5,8.992l-.769,2.7q-1.772,6.133-3.287,6.61a1.3,1.3,0,0,1-.248.045,2.8,2.8,0,0,1-2.049-.644,4.406,4.406,0,0,1-1.311-1.624,10.122,10.122,0,0,1-1.049-2.541,1.6,1.6,0,0,0-.112-.494,3.1,3.1,0,0,1-.166-.581,8.38,8.38,0,0,1-.216-1.149l-.039-.706a6.765,6.765,0,0,0-.121-.985,1.045,1.045,0,0,1-.061-.3,27.52,27.52,0,0,1,.007-2.771q.038-1.9.144-3.035.12-.972.184-1.8a7.446,7.446,0,0,1,.108-.857,6.107,6.107,0,0,0,.186-1,.8.8,0,0,0,.075-.442,1.108,1.108,0,0,1,.09-.409,1.443,1.443,0,0,0,.093-.5,2.237,2.237,0,0,1,.146-.677,4.763,4.763,0,0,0,.218-.775,2.124,2.124,0,0,1,.115-.514q.087-.053.1-.421a2.547,2.547,0,0,1,.28-.987.173.173,0,0,1,.016-.07.186.186,0,0,0,.016-.082.9.9,0,0,1,.072-.224,4.463,4.463,0,0,0,.345-1.015.579.579,0,0,1,.152-.357,2.86,2.86,0,0,0,.166-.45.339.339,0,0,1,.138-.253,1.482,1.482,0,0,0,.328-.441.759.759,0,0,1,.467-.419l.341-.03a1.347,1.347,0,0,1,.795.182,1.236,1.236,0,0,1,.5.426,1.941,1.941,0,0,1,.152.685,5.811,5.811,0,0,1-.185,1.276,4.274,4.274,0,0,0-.166.976.67.67,0,0,1-.123.423,12.644,12.644,0,0,0-.232,1.257,1.987,1.987,0,0,1-.08.648,2.351,2.351,0,0,0-.16.518,4.3,4.3,0,0,1-.271,1.077,4.531,4.531,0,0,0-.129,1.133,1.051,1.051,0,0,1-.058.246.374.374,0,0,0-.033.152,1.176,1.176,0,0,1-.019.173c-.011.055-.023.128-.038.221a1.96,1.96,0,0,1-.058.257,2.27,2.27,0,0,0-.1.7l-.124.927-.064.83-.17,1.183a6.225,6.225,0,0,1-.079.923q-.1.925-.094,1.016l.031.089a.9.9,0,0,1-.042.3,9.032,9.032,0,0,0-.14,2.05,16.012,16.012,0,0,0,.043,1.782q.04,1.233.1,1.96a4.042,4.042,0,0,1,.114.768q.387,2.828,1.164,3.332a1.063,1.063,0,0,0,.735.279.283.283,0,0,0,.155-.06,8.1,8.1,0,0,0,1.767-3.064l.986-2.835q.459-1.277,1.314-4.307,3.131-11.474,4.063-11.556a.607.607,0,0,1,.3.065,1.31,1.31,0,0,1,.622.437,2.05,2.05,0,0,1,.311,1.06,7.715,7.715,0,0,1,.017.972,7.023,7.023,0,0,0,.006.847,8.581,8.581,0,0,1-.089,1.325q-.113,1.315-.107,1.383t-.01.665q-.04,1.1-.076,4.587l.01,2.449a1.045,1.045,0,0,1,.049.293q.019,1.258.065,1.78a2.443,2.443,0,0,1,.053.339l-.007.436a4.588,4.588,0,0,0,.134.744,1.1,1.1,0,0,1,0,.252q.048.545.18,1.266a2.581,2.581,0,0,1,.1.564l.188.831a2.079,2.079,0,0,1,.112.494,5.412,5.412,0,0,0,.424,1.428,6.852,6.852,0,0,0,.6,1.321q.625,1.113.993,1.126,1.636-.144,2.906-2.615a19.542,19.542,0,0,0,1.433-4.523l.345-1.542a27.44,27.44,0,0,0,.792-3.482q.182-.794.2-.934c.015-.093.039-.21.072-.35q.375-2.232.619-4.405.139-1.02.187-1.516t.111-1.075q.23-2.058.3-4.08.03-1.216.015-1.9-.05-.82-.136-1.8a16.232,16.232,0,0,0-.536-2.952,2.3,2.3,0,0,1-.079-.382q-.012-.136.228-.272.159-.014.33.36a14.545,14.545,0,0,1,.733,3.9q.08.909.105,2.487,0,1.283-.055,1.974-.216,3-.317,3.669-.016.345-.044.668t-.15,1.548q-.267,2.428-.939,6.22-.292,1.881-.665,3.356L299.869,194a4.266,4.266,0,0,0-.146.425,9.163,9.163,0,0,1-.242.892,1.3,1.3,0,0,0-.107.342.452.452,0,0,1-.074.2l-.341.809a8.976,8.976,0,0,1-2.086,3.344,2.17,2.17,0,0,1-.955.6,5.507,5.507,0,0,1-.631.113M280.1,196a21.11,21.11,0,0,1-1.292-5.817q-.612-6.93,2.358-17.383-3.208,10.611-2.608,17.4A15.652,15.652,0,0,0,280.1,196m.755.254a21.213,21.213,0,0,1-1.261-5.728,40.929,40.929,0,0,1,1.235-14.032,37.868,37.868,0,0,0-1.49,13.986,15.789,15.789,0,0,0,1.517,5.774m12.438,3.413q-2.414-3.474-2.961-9.677a66.759,66.759,0,0,1,.486-13.439,62.371,62.371,0,0,0-.6,13.678q.016.182.3,3.145a12.771,12.771,0,0,0,2.777,6.292m.462.051q-2.3-3.461-2.877-10.028-.125-1.409-.135-4.247t.14-4.775q.149-1.937.145-1.982l-.065.555A55.537,55.537,0,0,0,290.7,190q.552,6.249,3.056,9.714" transform="translate(-65.523 -0.931)" fill="#a9bd93"/>
      <path id="Path_74" data-name="Path 74" d="M426.178,199.417l-.069,0a2.661,2.661,0,0,1-1.418-.394,3.471,3.471,0,0,1-1.244-1.268,6.91,6.91,0,0,1-.871-3.3q-.029-.8.055-2.307.193-3.545.415-4.991.077-.391.135-.69.018-.138.056-.345a5.455,5.455,0,0,0,.2-.9l-.007-.182q-.847.578-1.7,1.11a5.65,5.65,0,0,1-1.141.657q-1.029.585-1.816.932a3.658,3.658,0,0,0-.9.477.6.6,0,0,0-.124.358q-.1.506-.214,1.035-.481,2.5-.888,3.9t-.814,2.779c-.027.092-.047.169-.06.231a4.276,4.276,0,0,1-.685,1.28,1.986,1.986,0,0,1-1.314.914,3.289,3.289,0,0,1-.432.038,1.994,1.994,0,0,1-1.833-1.487,4.437,4.437,0,0,1-.347-1.4,6.765,6.765,0,0,1,.817-3.316,4.978,4.978,0,0,1,.472-.838,10.553,10.553,0,0,1,2.6-2.672.919.919,0,0,0,.391-.539,5.055,5.055,0,0,0,.072-.528,1.468,1.468,0,0,1,.023-.332,1.472,1.472,0,0,0,.028-.172,12.784,12.784,0,0,0,.215-1.651q.224-2.039.376-2.889.072-.528.361-2.672a18.259,18.259,0,0,1,.354-2.215,1.949,1.949,0,0,0,.161-.622,6.475,6.475,0,0,1,.186-1.171,5.635,5.635,0,0,0,.217-.966q.509-2.346.656-2.717.119-.506.173-.9l.141-.53a1.7,1.7,0,0,0,.144-.427,2.616,2.616,0,0,1,.165-.5,1.556,1.556,0,0,0,.165-.485,1.844,1.844,0,0,1,.244-.511.323.323,0,0,1,.214-.076,1.318,1.318,0,0,1,.668.159.888.888,0,0,1,.508.8,3.869,3.869,0,0,0,.026.421.78.78,0,0,1,.017.148q.011.319-.07,1.874-.041.755-.112,1.351a7.364,7.364,0,0,0-.1,1.167,18.47,18.47,0,0,1-.333,2.819,2.565,2.565,0,0,0-.129.849q-.923,4.826-.914,5.077a.928.928,0,0,1-.113.346,1.1,1.1,0,0,0-.11.438q-.075.459-.124.689c-.033.154-.056.264-.068.333a.3.3,0,0,1-.063.151,3.217,3.217,0,0,0-.26,1.036,1.568,1.568,0,0,1-.048.264.558.558,0,0,0-.028.172c0,.046.01.068.025.068q.943-.444,1.48-.738a3.73,3.73,0,0,1,.672-.344,23.127,23.127,0,0,0,2.414-1.433,4.379,4.379,0,0,0,1.055-.814,2.663,2.663,0,0,0,.177-.463.093.093,0,0,0,.02-.069c.04-.153.084-.307.132-.461a1.628,1.628,0,0,0,.079-.357,13.549,13.549,0,0,1,.376-1.3q.248-.716.287-.9a.287.287,0,0,1,.063-.139.8.8,0,0,0,.08-.322c.027-.077.052-.146.072-.208a.578.578,0,0,1,.063-.139,3.658,3.658,0,0,0,.164-.519,5.478,5.478,0,0,1,.344-.914q.544-1.389.669-1.713a13.486,13.486,0,0,1,.544-1.389q.385-.721.459-.9t.521-1.08a2.794,2.794,0,0,0,.43-.734.376.376,0,0,1,.128-.244.379.379,0,0,0,.128-.255q.042-.093.3-.513a17.591,17.591,0,0,1,1.7-2.275q1.756-1.957,3.055-2a1.527,1.527,0,0,1,1.539.9,2.017,2.017,0,0,1,.213.86,4.891,4.891,0,0,1-.061.847,11.3,11.3,0,0,1-1.342,3.951c-.028.062-.05.112-.063.151a.246.246,0,0,1-.043.081q-.022.024-.3.513a21.4,21.4,0,0,1-2.755,4.024.6.6,0,0,1-.109.129.371.371,0,0,0-.077.083q-.011.023-1.745,1.957-.22.236-.981.959a6.483,6.483,0,0,0-.847.886,5.169,5.169,0,0,0-.129.872,6.732,6.732,0,0,1-.178.782,2.388,2.388,0,0,0-.114.643,3.535,3.535,0,0,1-.139.587q-.043.082-.249,1.344-.057.322-.118.541t-.225,1.366l-.145,1.055a3.988,3.988,0,0,1-.168,1.056,19,19,0,0,0-.4,2.959,20.435,20.435,0,0,0-.1,2.172,1.877,1.877,0,0,0,.062.466,1.575,1.575,0,0,1,.06.4.677.677,0,0,0-.016.206,1.126,1.126,0,0,0,.044.272,2.718,2.718,0,0,1,.068.317q.181,1.226.865,1.2a1.339,1.339,0,0,0,.852-.441,4.312,4.312,0,0,0,1.258-1.825,44.758,44.758,0,0,0,2.617-8.539l.76-2.994c.053-.215.125-.332.216-.35.06,0-.113.132-.012.182s.045.426.049.517l.15.572c-.349,1.321-.561,2.09-.862,3.455a50.9,50.9,0,0,1-2.091,7.287q-1.158,2.734-2.841,2.886m-13.31-1.351q1-.036,1.67-3.734a1.92,1.92,0,0,1,.134-.712q.074-.482.186-1.194l.114-.643a4.053,4.053,0,0,0,.163-1.193,3.7,3.7,0,0,0,.049-.55c0-.076-.02-.113-.05-.112q-.114,0-.553.476l-.134.1a9.047,9.047,0,0,0-2.478,4.106,3.883,3.883,0,0,0-.151.9,5.653,5.653,0,0,0,.306,1.541q.311,1.038.744,1.023m2.119-2.039q.752-1.944,2-11.221t1.753-11.623a26.632,26.632,0,0,0-.833,3.522l-1.193,8.145a94.986,94.986,0,0,1-1.723,11.177m.512-.361a15.923,15.923,0,0,0,1.1-4.421q.711-3.723,1.4-8.929t1.144-7.276a62.3,62.3,0,0,0-1.465,8.178q-.262,2.269-.569,4.517a47.957,47.957,0,0,1-1.611,7.932m8.446.657-.168-.861a15.22,15.22,0,0,1-.186-2,33.1,33.1,0,0,1,.962-8.206,51.373,51.373,0,0,1,3.274-9.932,52.45,52.45,0,0,0-3.23,8.629,30.558,30.558,0,0,0-1.211,8.9,13.287,13.287,0,0,0,.347,2.681Zm.728.568a15.652,15.652,0,0,1-.461-3.316q-.181-5.061,2.429-13.782-.892,2.5-1.511,4.984a31.726,31.726,0,0,0-1.088,8.507q.008.228.068,1.276a7.69,7.69,0,0,0,.563,2.331M427.3,180.98q.046,0,1.56-1.676a43.467,43.467,0,0,0,3.99-5.255,14,14,0,0,0,1.663-3.917,5.024,5.024,0,0,0,.2-1.354,1.821,1.821,0,0,0-.286-.994.667.667,0,0,0-.513-.3,1.933,1.933,0,0,0-.7.208q-2.313,1.064-4.436,7.44-.247.762-.589,2.052a3.053,3.053,0,0,0-.076.436,7.944,7.944,0,0,1-.337,1.108,2.954,2.954,0,0,0-.163.85,4.133,4.133,0,0,1-.3,1.312l-.02.069Z" transform="translate(-176.338)" fill="#a9bd93"/>
      <path id="Path_75" data-name="Path 75" d="M548.8,227.387a5.075,5.075,0,0,0-1.222-2.686,5.474,5.474,0,0,0-3.941-1.8.076.076,0,0,0-.041.012,6.191,6.191,0,0,0-2.081.126,4.928,4.928,0,0,0-1.622.7,5.546,5.546,0,0,0-1.743-.876,5.365,5.365,0,0,0-.8-.17l2.785-1.873.008-.027,0-.045-1.084-1.611-.716-.4-.88-.173-.822.112-1.554,1.045-.028.024,0,.022-.024.057.044.019,1.881,2.816c-.078,0-.156-.011-.234-.013a.075.075,0,0,0-.041.012,6.186,6.186,0,0,0-2.081.126,4.452,4.452,0,0,0-2.637,1.679,4.571,4.571,0,0,0-.8,2.6,5.453,5.453,0,0,0,.687,2.7,5.951,5.951,0,0,0,1.983,2.091,5.625,5.625,0,0,0,2.72.9,5.2,5.2,0,0,0,2.814-.677,5.343,5.343,0,0,0,.7-.472,6.136,6.136,0,0,0,.678.508,5.625,5.625,0,0,0,2.72.9,5.2,5.2,0,0,0,2.814-.677,5.13,5.13,0,0,0,2.028-2.052,4.818,4.818,0,0,0,.485-2.886m-10.425-6.362-1.224,1.565-.545-1.919Zm-1.753-.51.8-1.294.75.15.251,1.5Zm.86,1.9,1.073-1.373,1.19-.15Zm2.456-1.7-1.36.172-.253-1.514.661-.083Zm-2.472-2,.832.164.487.279-.538.07-.832-.164-.487-.279Zm-.775.114.58.332-.8,1.3-1.194-.684Zm-1.307,1.19,1.041.582.484,1.7Zm4.78,3.77a5.392,5.392,0,0,1,3.044-.714,5.6,5.6,0,0,1,2.766.847,4.5,4.5,0,0,1,1.728,2.084,4.835,4.835,0,0,1,.3,2.65,4.476,4.476,0,0,1-1.313,2.438,4.884,4.884,0,0,1-2.491,1.291,4.551,4.551,0,0,1-2.711-.353,5.025,5.025,0,0,1-1.106-.7,4.947,4.947,0,0,0,1.023-1.318,4.819,4.819,0,0,0,.485-2.886,5.074,5.074,0,0,0-1.221-2.686,5.229,5.229,0,0,0-.614-.581c.038-.025.073-.052.112-.076m-.362,7.287.008-.007q.134.141.278.27l-.007.006c-.1-.087-.189-.176-.279-.27m-.127-6.931q.061.057.121.116a5.175,5.175,0,0,0-1.11,4.924,4.794,4.794,0,0,0,.993,1.74l-.01.009a5.383,5.383,0,0,1-1.244-2.324,5.024,5.024,0,0,1,.058-2.658,3.932,3.932,0,0,1,.577-1.159,3.714,3.714,0,0,1,.615-.649m.315-.082-.056.057c-.035-.034-.072-.066-.108-.1l.059-.044c.035.028.071.056.106.085m-.565,6.22a4.591,4.591,0,0,1-.761-2.547,5.072,5.072,0,0,1,.707-2.577,4.675,4.675,0,0,1,.56-.756,4.535,4.535,0,0,1,.86,1.349,4.838,4.838,0,0,1,.3,2.65,4.47,4.47,0,0,1-1.269,2.392,4.793,4.793,0,0,1-.394-.511m.527.653a4.81,4.81,0,0,0,.9-1.211,4.727,4.727,0,0,0,.462-2.755,4.949,4.949,0,0,0-1.1-2.551c-.046-.055-.1-.105-.145-.157.023-.024.046-.048.07-.071a4.817,4.817,0,0,1,1.192,1.648,4.938,4.938,0,0,1,.338,2.813,4.566,4.566,0,0,1-1.324,2.456c-.035.034-.073.066-.109.1q-.145-.13-.28-.271m-.474-7.254c.084.055.166.113.247.172l-.044.035a4.883,4.883,0,0,0-.637-.457q.223.115.433.25m-1.6,8.758a4.988,4.988,0,0,1-2.743-.171,5.829,5.829,0,0,1-2.33-1.531,5.389,5.389,0,0,1-1.3-2.383,5.022,5.022,0,0,1,.058-2.658,3.932,3.932,0,0,1,.577-1.159,3.849,3.849,0,0,1,1.1-1.006,5.394,5.394,0,0,1,3.044-.714,5.6,5.6,0,0,1,2.766.847,4.445,4.445,0,0,1,.467.349,3.8,3.8,0,0,0-.651.7,4.573,4.573,0,0,0-.8,2.6,5.455,5.455,0,0,0,.687,2.7,5.731,5.731,0,0,0,.758,1.05,4.87,4.87,0,0,1-2.242,1.067,4.547,4.547,0,0,1-2.711-.353,4.983,4.983,0,0,1-2.06-1.75,4.592,4.592,0,0,1-.761-2.547,5.071,5.071,0,0,1,.707-2.578,4.671,4.671,0,0,1,.809-1.011.1.1,0,0,0-.012-.137.1.1,0,0,0-.137.011,5.161,5.161,0,0,0-1.345,5.164,4.912,4.912,0,0,0,1.578,2.309,5.054,5.054,0,0,0,2.571,1.124,4.826,4.826,0,0,0,2.859-.563,5.1,5.1,0,0,0,.873-.6q.131.135.269.262a5.22,5.22,0,0,1-2.043.973m10.695-3.533a4.567,4.567,0,0,1-1.324,2.456,5.2,5.2,0,0,1-2.459,1.333,4.987,4.987,0,0,1-2.743-.171,5.791,5.791,0,0,1-1.827-1.051l.009-.007.031.027a5.052,5.052,0,0,0,2.571,1.124,4.827,4.827,0,0,0,2.859-.563,4.981,4.981,0,0,0,2.065-2.076,4.727,4.727,0,0,0,.462-2.755,4.95,4.95,0,0,0-1.1-2.551,4.7,4.7,0,0,0-1.167-.987q.222.115.433.251a4.886,4.886,0,0,1,2.188,4.97" transform="translate(-275.876 -42.699)" fill="#a9bd93"/>
    </g>
  </svg>